<?xml version="1.0" encoding="utf-8"?>
<!-- Generator: Adobe Illustrator 25.1.0, SVG Export Plug-In . SVG Version: 6.00 Build 0)  -->
<svg version="1.1" id="Layer_1" xmlns="http://www.w3.org/2000/svg" xmlns:xlink="http://www.w3.org/1999/xlink" x="0px" y="0px"
	 viewBox="0 0 935.49 727.15" style="enable-background:new 0 0 935.49 727.15;" xml:space="preserve">
<style type="text/css">
	.st0{fill:#9C9C9C;}
</style>
<path class="st0" d="M823.23,38.2h-695.5c-54.24,0.24-78.37,24.13-78.37,78.61v477.84c0,54.95,23.89,79.08,77.89,79.08h695.74
	c56.15,0,79.8-23.65,79.8-80.04V118.72C902.79,62.09,879.38,38.44,823.23,38.2z M845.69,391.8c0,0.72-0.24,1.2-0.48,1.67
	c-28.19-25.09-57.34-49.7-84.82-75.5c-12.9-11.95-22.22-12.66-36.55-1.67c-66.18,51.37-133.08,102.02-200.45,151.71
	c-17.2,12.66-13.62,19.35,0,31.3c44.68,38.7,88.16,78.37,132.12,117.79c-0.48,1.43-0.72,2.87-0.72,4.3c-14.1,0-27.95,0-42.05-0.24
	c-4.3-3.58-8.6-7.17-12.9-10.99c-87.92-78.84-176.32-157.45-263.29-237.25c-16.72-15.53-27-13.14-43-0.72
	c-61.88,48.02-124.72,94.38-187.07,141.44c-0.72-36.07-2.15-71.91-2.15-107.99c0.24-103.45,1.43-206.91,1.91-310.36
	c10.75-5.74,22.46-4.3,33.69-4.3h672.32c11.23,0,22.94-1.43,33.69,4.3C849.04,193.98,849.28,292.89,845.69,391.8z"/>
<path class="st0" d="M290.75,302.48c-45.25,0.55-80.86-33.8-81.13-78.26c-0.26-44.61,34.99-79.57,80.08-79.4
	c43.84,0.16,78.71,33.71,79.95,76.93C370.92,265.66,335.46,301.93,290.75,302.48z"/>
</svg>
